<?xml version="1.0" encoding="UTF-8"?>
<svg id="_Слой_2" data-name="Слой 2" xmlns="http://www.w3.org/2000/svg" width="512" height="510.03" viewBox="0 0 512 510.03">
  <defs>
    <style>
      .cls-1 {
        fill: #fff;
        fill-rule: evenodd;
        isolation: isolate;
        opacity: .99;
      }
    </style>
  </defs>
  <g id="_Слой_1-2" data-name="Слой 1">
    <path class="cls-1" d="M512,299.89v12c-27,96.84-88.67,160.01-185,189.5-89.08,21.39-168.74,3.06-239-55C36.76,399.74,7.42,341.91,0,272.89v-45C13.93,120.8,70.93,46.96,171,6.39c6.38-1.85,12.71-3.85,19-6,15.19-2.13,23.02,4.37,23.5,19.5-.67,2-1.33,4-2,6-33.37,41.79-47.37,89.45-42,143,12.43,80.42,56.93,134.25,133.5,161.5,52.57,15.47,102.9,10.14,151-16,12.03-8.01,24.03-16.01,36-24,9.9-2.32,17.24,.84,22,9.5Z"/>
  </g>
</svg>