<?xml version="1.0" encoding="UTF-8"?>
<svg id="_Слой_2" data-name="Слой 2" xmlns="http://www.w3.org/2000/svg" width="512" height="512" viewBox="0 0 512 512">
  <defs>
    <style>
      .cls-1 {
        opacity: .97;
      }

      .cls-1, .cls-2, .cls-3, .cls-4, .cls-5 {
        fill: #fff;
        fill-rule: evenodd;
        isolation: isolate;
      }

      .cls-2 {
        opacity: .96;
      }

      .cls-3 {
        opacity: .96;
      }

      .cls-4 {
        opacity: .96;
      }

      .cls-5 {
        opacity: .99;
      }
    </style>
  </defs>
  <g id="_Слой_1-2" data-name="Слой 1">
    <path class="cls-3" d="M249,0h14c8.98,2.82,14.82,8.82,17.5,18,1.55,15.96,1.89,31.96,1,48-1.71,15.21-10.21,23.54-25.5,25-15.29-1.46-23.79-9.79-25.5-25-.88-16.04-.55-32.04,1-48,2.68-9.18,8.52-15.18,17.5-18Z"/>
    <path class="cls-4" d="M89,67c7.82-.4,14.82,1.76,21,6.5,11.2,10.86,22.03,22.03,32.5,33.5,7.94,17.85,3.11,30.68-14.5,38.5-7.37,1.31-14.37,.31-21-3-12.5-11.17-24.33-23-35.5-35.5-8.58-19.77-2.75-33.1,17.5-40Z"/>
    <path class="cls-2" d="M416,67c21.56,1.39,30.73,12.72,27.5,34-1.41,3.16-3.08,6.16-5,9-10.86,11.2-22.03,22.03-33.5,32.5-16.19,7.6-28.69,3.77-37.5-11.5-3.23-10.28-1.56-19.61,5-28,9.83-9.83,19.67-19.67,29.5-29.5,4.39-3.03,9.06-5.2,14-6.5Z"/>
    <path class="cls-5" d="M251,127c57.17,1.07,98.34,27.07,123.5,78,19.43,52.33,10.77,99.33-26,141-41.85,38.84-89.68,48.34-143.5,28.5-49.35-23.89-75.35-63.39-78-118.5,2.65-55.1,28.65-94.6,78-118.5,14.9-6.01,30.23-9.51,46-10.5Z"/>
    <path class="cls-1" d="M0,263v-14c2.82-8.98,8.82-14.82,18-17.5,15.96-1.55,31.96-1.88,48-1,15.21,1.71,23.54,10.21,25,25.5-1.2,12.26-7.53,20.42-19,24.5-18,.67-36,.67-54,0-9.18-2.68-15.18-8.52-18-17.5Z"/>
    <path class="cls-1" d="M512,249v14c-2.82,8.98-8.82,14.82-18,17.5-18,.67-36,.67-54,0-15.85-6.53-21.35-18.03-16.5-34.5,4.46-9.45,11.96-14.62,22.5-15.5,16.04-.88,32.04-.55,48,1,9.18,2.68,15.18,8.52,18,17.5Z"/>
    <path class="cls-4" d="M114,366c15.48-2.35,25.98,3.65,31.5,18,2.08,9.38,.08,17.72-6,25-10.53,10.86-21.36,21.36-32.5,31.5-16.82,8.06-29.66,3.89-38.5-12.5-2.79-9.52-1.12-18.19,5-26,9.83-9.83,19.67-19.67,29.5-29.5,3.43-2.71,7.1-4.88,11-6.5Z"/>
    <path class="cls-2" d="M384,366c7.38-.81,14.38,.36,21,3.5,11.47,10.47,22.64,21.3,33.5,32.5,9.65,14.13,8.15,26.96-4.5,38.5-9.68,5.99-19.35,5.99-29,0-12.5-11.17-24.33-23-35.5-35.5-7.85-17.97-3.02-30.97,14.5-39Z"/>
    <path class="cls-3" d="M263,512h-14c-8.98-2.82-14.82-8.82-17.5-18-1.55-15.96-1.88-31.96-1-48,1.71-15.21,10.21-23.54,25.5-25,15.29,1.46,23.79,9.79,25.5,25,.89,16.04,.55,32.04-1,48-2.68,9.18-8.52,15.18-17.5,18Z"/>
  </g>
</svg>